<?xml version="1.0" encoding="UTF-8" standalone="no"?>
<!-- Created with Inkscape (http://www.inkscape.org/) -->

<svg
   width="512"
   height="512"
   viewBox="0 0 135.46667 135.46667"
   version="1.1"
   id="svg5"
   sodipodi:docname="appIcon.svg"
   inkscape:version="1.1 (ce6663b3b7, 2021-05-25)"
   xmlns:inkscape="http://www.inkscape.org/namespaces/inkscape"
   xmlns:sodipodi="http://sodipodi.sourceforge.net/DTD/sodipodi-0.dtd"
   xmlns="http://www.w3.org/2000/svg"
   xmlns:svg="http://www.w3.org/2000/svg">
  <sodipodi:namedview
     id="namedview7"
     pagecolor="#505050"
     bordercolor="#eeeeee"
     borderopacity="1"
     inkscape:pageshadow="0"
     inkscape:pageopacity="0"
     inkscape:pagecheckerboard="0"
     inkscape:document-units="px"
     showgrid="false"
     inkscape:zoom="1.6484375"
     inkscape:cx="164.09479"
     inkscape:cy="165.91469"
     inkscape:window-width="1920"
     inkscape:window-height="1016"
     inkscape:window-x="0"
     inkscape:window-y="27"
     inkscape:window-maximized="1"
     inkscape:current-layer="layer1" />
  <defs
     id="defs2" />
  <g
     inkscape:label="Capa 1"
     inkscape:groupmode="layer"
     id="layer1">
    <path
       d="M 20.782666,0.52015013 C 8.1803909,18.203776 1.1059221,42.226275 1.1250484,67.270757 c 0,26.058229 7.5141771,49.661693 19.6576176,66.750613 l 9.459809,-13.31236 C 20.140355,106.56883 14.485871,87.321692 14.543218,67.270757 c 0,-20.865465 5.971083,-39.842652 15.699257,-53.438251 L 20.782666,0.52015013 m 94.866444,0 -9.4598,13.31235587 c 10.09133,14.150344 15.74386,33.390844 15.69925,53.438251 0,20.95988 -5.97108,39.842663 -15.69925,53.438253 l 9.4598,13.31236 c 12.60228,-17.68363 19.67675,-41.706128 19.65762,-66.750613 0,-26.058226 -7.51417,-49.661698 -19.65762,-66.75060687 M 31.642811,54.671197 c -7.56387,10.601625 -3.686816,-2.423597 -3.681426,12.59956 0,15.578288 -4.763975,12.388117 2.548925,22.679232 l 18.718873,4.039893 c -5.037778,-7.082591 -7.862625,-16.698005 -7.849629,-26.719125 0,-10.479939 -0.854157,0.279192 3.976385,-6.518608 l -2.310643,-6.079473 m 53.135596,-0.749886 -5.417868,4.793542 c 5.037778,7.082592 4.302201,-1.466695 4.289204,8.554425 0,10.479939 -3.019087,19.921326 -7.849627,26.719125 l 10.598884,0.715671 c 7.563865,-10.601627 10.674295,-12.411641 10.668905,-27.434796 0,-15.578287 2.14441,-1.410539 -5.16849,-11.701654 m -35.086007,-7.18112 c -7.261018,-1.481675 -24.820167,5.959924 -28.643145,15.662602 -4.758345,12.076633 -7.890058,45.716865 48.51699,28.74788 7.096491,-2.134844 9.872441,-18.219708 9.872441,-28.648377 0,-10.428668 -7.049872,-11.130701 -29.746286,-15.762105 z"
       fill="#000000"
       id="path9"
       style="fill:#000080;stroke-width:7.95883"
       sodipodi:nodetypes="ccccccccccccccccccccccccccccsssss" />
    <g
       id="g102"
       transform="matrix(4.3718979,0,0,4.0825353,13.022718,16.844029)">
      <path
         d="M 21,8 C 20.798,8 16.15,8.029 12,10.008 7.85,8.029 3.202,8 3,8 A 1,1 0 0 0 2,9 v 9.883 a 1,1 0 0 0 0.305,0.719 c 0.195,0.188 0.48,0.305 0.729,0.28 l 0.127,-0.001 c 0.683,0 4.296,0.098 8.416,2.025 0.016,0.008 0.034,0.005 0.05,0.011 C 11.746,21.966 11.871,22 12,22 c 0.129,0 0.254,-0.034 0.374,-0.083 0.016,-0.006 0.034,-0.003 0.05,-0.011 4.12,-1.928 7.733,-2.025 8.416,-2.025 l 0.127,0.001 C 21.205,19.907 21.5,19.79 21.696,19.602 21.89,19.413 22,19.153 22,18.883 V 9 A 1,1 0 0 0 21,8 Z M 4,10.049 c 1.485,0.111 4.381,0.48 7,1.692 v 7.742 C 8,18.308 5.41,17.989 4,17.907 Z m 16,7.858 c -1.41,0.082 -4,0.401 -7,1.576 v -7.742 c 2.619,-1.212 5.515,-1.581 7,-1.692 z"
         fill="#000000"
         id="path90" />
      <circle
         cx="12"
         cy="5"
         r="3"
         fill="#000000"
         id="circle92" />
    </g>
    <path
       style="fill:#1a1a1a;stroke-width:0.214478"
       d="m 228.8479,363.41479 c -13.58233,-5.07071 -34.53358,-11.11068 -51.58193,-14.87039 -18.98798,-4.18747 -41.1143,-7.41741 -57.37283,-8.37512 -1.17963,-0.0695 -2.65148,-0.1789 -3.27079,-0.24314 l -1.12601,-0.11679 v -60.495 -60.495 l 1.98392,0.14474 c 4.4517,0.32479 13.71204,1.25694 19.37865,1.95069 33.46157,4.09657 64.20053,11.70274 89.76511,22.21184 2.04888,0.84225 3.84587,1.57961 3.99333,1.63858 0.21357,0.0854 0.26809,12.22774 0.26809,59.70911 0,32.78104 -0.0724,59.59721 -0.16085,59.59147 -0.0885,-0.006 -0.93298,-0.29868 -1.87669,-0.65099 z"
       id="path1073"
       transform="scale(0.26458334)" />
    <path
       style="fill:#1a1a1a;stroke-width:0.214478"
       d="M 264.12952,304.47996 V 244.8837 l 1.12601,-0.47401 c 31.9566,-13.45245 70.49132,-22.17508 112.38641,-25.43951 l 1.87668,-0.14623 v 60.4927 60.4927 l -1.12601,0.11563 c -0.6193,0.0636 -2.0429,0.17222 -3.16355,0.2414 -11.61137,0.71671 -27.42966,2.68855 -41.33842,5.15305 -21.07531,3.73435 -44.06731,9.7783 -64.49157,16.953 -2.82415,0.99208 -5.16514,1.80378 -5.20219,1.80378 -0.0371,0 -0.0674,-26.81831 -0.0674,-59.59625 z"
       id="path1112"
       transform="scale(0.26458334)" />
    <path
       style="fill:#1a1a1a;stroke-width:0.606635"
       d="m 236.58768,185.64295 c -24.53285,-5.39803 -41.33882,-27.74193 -37.91011,-50.40228 2.82466,-18.66815 16.2075,-33.19046 35.78688,-38.833935 5.61592,-1.618705 20.4694,-1.618705 26.08531,0 14.13916,4.075405 25.48111,13.090745 31.24983,24.839465 3.71385,7.5637 4.78603,12.02779 4.75467,19.79645 -0.0379,9.39501 -2.23881,16.52878 -7.48107,24.24835 -6.87794,10.12821 -18.412,17.73443 -30.91008,20.38387 -4.95912,1.05127 -16.73173,1.03385 -21.57543,-0.0319 z"
       id="path1151"
       transform="scale(0.26458334)" />
    <path
       style="fill:#000080;stroke-width:0.606635"
       d="m 219.31666,359.85137 c -29.66701,-9.86199 -68.10003,-17.81919 -94.34984,-19.53425 -3.00284,-0.1962 -6.34691,-0.49241 -7.43127,-0.65825 l -1.97157,-0.30153 v -60.1128 -60.11281 l 5.30806,0.41489 c 34.54011,2.6997 73.04343,11.14547 101.51935,22.26844 l 7.64257,2.98526 0.39258,6.81311 c 0.48862,8.4797 0.3748,95.99047 -0.13668,105.08799 l -0.37517,6.67299 z"
       id="path1412"
       transform="scale(0.26458334)" />
    <path
       style="fill:#1a1a1a;stroke-width:0.606635"
       d="m 264.18957,304.36043 v -59.31731 l 8.94787,-3.41127 c 23.01805,-8.77536 48.00503,-15.12601 74.76777,-19.00285 10.33507,-1.49713 26.74096,-3.33042 29.80355,-3.33042 h 1.74148 v 60.02938 60.02938 l -1.97157,0.30368 c -1.08436,0.16702 -4.29194,0.46526 -7.12796,0.66274 -29.24105,2.03621 -70.08642,10.7411 -99.67448,21.24243 -3.27215,1.16134 -6.07026,2.11154 -6.21801,2.11154 -0.14776,0 -0.26865,-26.69279 -0.26865,-59.3173 z"
       id="path1599"
       transform="scale(0.26458334)" />
    <path
       style="fill:#1a1a1a;stroke-width:0.606635"
       d="m 217.69994,359.05034 c -30.4791,-9.90291 -66.68461,-17.16266 -96.52458,-19.35462 l -5.61138,-0.4122 v -59.99777 -59.99777 l 3.18484,0.31706 c 16.69327,1.66187 22.88754,2.41674 32.33103,3.94008 26.03131,4.19913 48.65556,10.08175 70.42154,18.31058 l 7.96584,3.01156 0.36871,2.22988 c 0.49927,3.01941 0.38046,109.49273 -0.12605,112.96785 l -0.40183,2.75692 z"
       id="path1712"
       transform="scale(0.26458334)" />
    <path
       style="fill:#000000;stroke-width:0.606635"
       d="m 235.16756,185.01158 c -1.78202,-0.49567 -3.46486,-0.76227 -3.73966,-0.59243 -0.2748,0.16983 -0.59119,0.10235 -0.7031,-0.14997 -0.11191,-0.25232 -2.5879,-1.63009 -5.50221,-3.06172 -9.94489,-4.88535 -17.23742,-12.02558 -22.0326,-21.57244 -1.48341,-2.95335 -2.6971,-5.75145 -2.6971,-6.21801 0,-0.46656 -0.24743,-0.84829 -0.54984,-0.84829 -0.30241,0 -0.40707,-0.54597 -0.23257,-1.21327 0.17451,-0.6673 0.021,-1.21327 -0.34107,-1.21327 -0.36209,0 -0.50121,-0.40948 -0.30916,-0.90995 0.19205,-0.50048 0.156,-1.38768 -0.0801,-1.97157 -0.80722,-1.99625 -0.23952,-11.74812 0.95642,-16.42917 3.64039,-14.24898 14.30257,-26.15367 28.63887,-31.976285 6.87975,-2.794174 11.76046,-3.513577 21.58503,-3.181566 7.20894,0.243618 8.9433,0.514995 13.56156,2.121988 13.73536,4.779413 24.42186,14.774913 29.57748,27.664953 2.49969,6.24969 3.29906,11.65396 2.74904,18.58543 -0.25281,3.18607 -0.49512,6.40707 -0.53847,7.15778 -0.0433,0.75071 -0.24033,1.36493 -0.43775,1.36493 -0.35999,0 -2.00039,4.6246 -2.04423,5.76303 -0.0129,0.33365 -0.18334,0.74313 -0.37886,0.90996 -0.19553,0.16682 -1.38557,1.92495 -2.64454,3.90694 -6.28568,9.89556 -14.82027,16.58725 -26.48021,20.76224 -4.06691,1.4562 -5.46582,1.62677 -14.80411,1.80503 -7.76334,0.1482 -11.11377,-0.0259 -13.55282,-0.70434 z"
       id="path1862"
       transform="scale(0.26458334)" />
  </g>
</svg>
